<svg width="272" height="252" viewBox="0 0 272 252" fill="none" xmlns="http://www.w3.org/2000/svg">
<path d="M35.1378 99.6824C47.9849 115.024 63.6665 130.373 81.5711 145.502L120.792 131.532C112.381 124.424 104.854 116.974 98.8189 109.767C92.7839 102.56 88.2672 95.6552 85.5268 89.4459C82.7864 83.2366 81.876 77.8448 82.8475 73.5784C83.819 69.312 86.6534 66.2546 91.1889 64.5806C95.7244 62.9067 101.872 62.649 109.281 63.8224C116.69 64.9957 125.215 67.577 134.37 71.419C143.524 75.261 153.129 80.2884 162.635 86.2141C172.142 92.1398 181.43 99.7856 189.841 106.893L229.917 92.6147C212.013 77.4852 191.222 62.1583 170.985 49.544C150.749 36.9297 130.303 26.2278 110.816 18.0493C91.3283 9.87075 73.1806 4.37576 57.4089 1.87806C41.6373 -0.619647 20.3818 -1.74544 8.31918 11.6148C-4.36307 25.6613 1.00904 43.2056 6.84256 56.4235C12.6761 69.6415 22.2908 84.3408 35.1378 99.6824Z" fill="#E3F5FF"/>
<path d="M35.1378 99.6824C47.9849 115.024 63.6665 130.373 81.5711 145.502L120.792 131.532C112.381 124.424 104.854 116.974 98.8189 109.767C92.7839 102.56 88.2672 95.6552 85.5268 89.4459C82.7864 83.2366 81.876 77.8448 82.8475 73.5784C83.819 69.312 86.6534 66.2546 91.1889 64.5806C95.7244 62.9067 101.872 62.649 109.281 63.8224C116.69 64.9957 125.215 67.577 134.37 71.419C143.524 75.261 153.129 80.2884 162.635 86.2141C172.142 92.1398 181.43 99.7856 189.841 106.893L229.917 92.6147C212.013 77.4852 191.222 62.1583 170.985 49.544C150.749 36.9297 130.303 26.2278 110.816 18.0493C91.3283 9.87075 73.1806 4.37576 57.4089 1.87806C41.6373 -0.619647 20.3818 -1.74544 8.31918 11.6148C-4.36307 25.6613 1.00904 43.2056 6.84256 56.4235C12.6761 69.6415 22.2908 84.3408 35.1378 99.6824Z" fill="#E3F5FF"/>
<path d="M236.752 152.052C223.905 136.711 207.746 122.023 189.841 106.893L151.494 120.561C159.905 127.668 167.036 134.761 173.071 141.967C179.106 149.174 183.622 156.079 186.363 162.289C189.103 168.498 190.014 173.89 189.042 178.156C188.071 182.423 185.236 185.48 180.701 187.154C176.165 188.828 170.018 189.086 162.609 187.912C155.2 186.739 146.675 184.158 137.52 180.316C128.365 176.474 118.761 171.446 109.254 165.521C99.7481 159.595 89.9821 152.61 81.5711 145.502L42.3528 159.464C60.2575 174.593 80.6678 189.576 100.904 202.191C121.141 214.805 141.586 225.507 161.074 233.685C180.561 241.864 198.709 247.359 214.481 249.857C230.252 252.354 251.508 253.48 263.57 240.12C276.253 226.073 270.881 208.529 265.047 195.311C259.214 182.093 249.599 167.394 236.752 152.052Z" fill="#E3F5FF"/>
<path d="M236.752 152.052C223.905 136.711 207.746 122.023 189.841 106.893L151.494 120.561C159.905 127.668 167.036 134.761 173.071 141.967C179.106 149.174 183.622 156.079 186.363 162.289C189.103 168.498 190.014 173.89 189.042 178.156C188.071 182.423 185.236 185.48 180.701 187.154C176.165 188.828 170.018 189.086 162.609 187.912C155.2 186.739 146.675 184.158 137.52 180.316C128.365 176.474 118.761 171.446 109.254 165.521C99.7481 159.595 89.9821 152.61 81.5711 145.502L42.3528 159.464C60.2575 174.593 80.6678 189.576 100.904 202.191C121.141 214.805 141.586 225.507 161.074 233.685C180.561 241.864 198.709 247.359 214.481 249.857C230.252 252.354 251.508 253.48 263.57 240.12C276.253 226.073 270.881 208.529 265.047 195.311C259.214 182.093 249.599 167.394 236.752 152.052Z" fill="#E3F5FF"/>
<path d="M81.5711 145.502C63.6665 130.373 47.9849 115.024 35.1378 99.6824C22.2908 84.3408 12.6761 69.6415 6.84256 56.4235C1.00904 43.2056 -4.36307 25.6613 8.31918 11.6148C20.3818 -1.74544 41.6373 -0.619647 57.4089 1.87806C73.1806 4.37576 91.3283 9.87075 110.816 18.0493C130.303 26.2278 150.749 36.9297 170.985 49.544C191.222 62.1583 212.013 77.4852 229.917 92.6147L189.841 106.893M81.5711 145.502L120.792 131.532C112.381 124.424 104.854 116.974 98.8189 109.767C92.7839 102.56 88.2672 95.6552 85.5268 89.4459C82.7864 83.2366 81.876 77.8448 82.8475 73.5784C83.819 69.312 86.6534 66.2546 91.1889 64.5806C95.7244 62.9067 101.872 62.649 109.281 63.8224C116.69 64.9957 125.215 67.577 134.37 71.419C143.524 75.261 153.129 80.2884 162.635 86.2141C172.142 92.1398 181.43 99.7856 189.841 106.893M81.5711 145.502L42.3528 159.464C60.2575 174.593 80.6678 189.576 100.904 202.191C121.141 214.805 141.586 225.507 161.074 233.685C180.561 241.864 198.709 247.359 214.481 249.857C230.252 252.354 251.508 253.48 263.57 240.12C276.253 226.073 270.881 208.529 265.047 195.311C259.214 182.093 249.599 167.394 236.752 152.052C223.905 136.711 207.746 122.023 189.841 106.893M81.5711 145.502C89.9821 152.61 99.7481 159.595 109.254 165.521C118.761 171.446 128.365 176.474 137.52 180.316C146.675 184.158 155.2 186.739 162.609 187.912C170.018 189.086 176.165 188.828 180.701 187.154C185.236 185.48 188.071 182.423 189.042 178.156C190.014 173.89 189.103 168.498 186.363 162.289C183.622 156.079 179.106 149.174 173.071 141.967C167.036 134.761 159.905 127.668 151.494 120.561L189.841 106.893" stroke="white" stroke-width="3.26252"/>
</svg>
