<svg width="40" height="40" viewBox="0 0 40 40" fill="none" xmlns="http://www.w3.org/2000/svg">
<path d="M4.76651 15.1749C6.6115 17.6215 8.88995 20.0913 11.5101 22.5449L17.6174 20.7145C16.3865 19.5619 15.2936 18.3637 14.4269 17.2144C13.5602 16.0651 12.9233 14.9738 12.5527 14.0028C12.1821 13.0318 12.0849 12.2001 12.2668 11.5552C12.4487 10.9103 12.906 10.4648 13.6127 10.2442C14.3194 10.0236 15.2617 10.0322 16.3856 10.2695C17.5095 10.5068 18.7932 10.9681 20.1632 11.6271C21.5333 12.2862 22.9629 13.13 24.3705 14.1105C25.7781 15.091 27.1389 16.3328 28.3698 17.4854L34.6104 15.6147C31.9902 13.161 28.9302 10.6547 25.9338 8.56754C22.9374 6.48039 19.8941 4.68407 16.9776 3.28114C14.0612 1.87822 11.3287 0.896163 8.9361 0.391048C6.54356 -0.114068 3.30163 -0.452182 1.35253 1.4969C-0.696692 3.5461 -0.0120744 6.27118 0.776886 8.33821C1.56585 10.4052 2.92152 12.7283 4.76651 15.1749Z" fill="#908DFF"/>
<path d="M4.76651 15.1749C6.6115 17.6215 8.88995 20.0913 11.5101 22.5449L17.6174 20.7145C16.3865 19.5619 15.2936 18.3637 14.4269 17.2144C13.5602 16.0651 12.9233 14.9738 12.5527 14.0028C12.1821 13.0318 12.0849 12.2001 12.2668 11.5552C12.4487 10.9103 12.906 10.4648 13.6127 10.2442C14.3194 10.0236 15.2617 10.0322 16.3856 10.2695C17.5095 10.5068 18.7932 10.9681 20.1632 11.6271C21.5333 12.2862 22.9629 13.13 24.3705 14.1105C25.7781 15.091 27.1389 16.3328 28.3698 17.4854L34.6104 15.6147C31.9902 13.161 28.9302 10.6547 25.9338 8.56754C22.9374 6.48039 19.8941 4.68407 16.9776 3.28114C14.0612 1.87822 11.3287 0.896163 8.9361 0.391048C6.54356 -0.114068 3.30163 -0.452182 1.35253 1.4969C-0.696692 3.5461 -0.0120744 6.27118 0.776886 8.33821C1.56585 10.4052 2.92152 12.7283 4.76651 15.1749Z" fill="#908DFF"/>
<path d="M35.1916 24.7581C33.3466 22.3115 30.9899 19.939 28.3698 17.4854L22.3985 19.2764C23.6294 20.429 24.6645 21.5693 25.5312 22.7186C26.3979 23.8679 27.0348 24.9592 27.4054 25.9302C27.776 26.9013 27.8732 27.733 27.6913 28.3779C27.5094 29.0227 27.052 29.4682 26.3453 29.6888C25.6386 29.9094 24.6964 29.9008 23.5725 29.6635C22.4485 29.4262 21.1649 28.9649 19.7949 28.3059C18.4248 27.6468 16.9952 26.803 15.5876 25.8225C14.18 24.842 12.7409 23.6975 11.5101 22.5449L5.40323 24.3739C8.02337 26.8275 11.0279 29.2783 14.0242 31.3655C17.0206 33.4526 20.064 35.2489 22.9804 36.6519C25.8969 38.0548 28.6294 39.0368 31.022 39.542C33.4145 40.0471 36.6564 40.3852 38.6055 38.4361C40.6548 36.3869 39.9701 33.6618 39.1812 31.5948C38.3922 29.5278 37.0365 27.2047 35.1916 24.7581Z" fill="#908DFF"/>
<path d="M35.1916 24.7581C33.3466 22.3115 30.9899 19.939 28.3698 17.4854L22.3985 19.2764C23.6294 20.429 24.6645 21.5693 25.5312 22.7186C26.3979 23.8679 27.0348 24.9592 27.4054 25.9302C27.776 26.9013 27.8732 27.733 27.6913 28.3779C27.5094 29.0227 27.052 29.4682 26.3453 29.6888C25.6386 29.9094 24.6964 29.9008 23.5725 29.6635C22.4485 29.4262 21.1649 28.9649 19.7949 28.3059C18.4248 27.6468 16.9952 26.803 15.5876 25.8225C14.18 24.842 12.7409 23.6975 11.5101 22.5449L5.40323 24.3739C8.02337 26.8275 11.0279 29.2783 14.0242 31.3655C17.0206 33.4526 20.064 35.2489 22.9804 36.6519C25.8969 38.0548 28.6294 39.0368 31.022 39.542C33.4145 40.0471 36.6564 40.3852 38.6055 38.4361C40.6548 36.3869 39.9701 33.6618 39.1812 31.5948C38.3922 29.5278 37.0365 27.2047 35.1916 24.7581Z" fill="#908DFF"/>
</svg>
